<?xml version="1.0" encoding="UTF-8"?>
<svg id="Camada_1" data-name="Camada 1" xmlns="http://www.w3.org/2000/svg" viewBox="0 0 1080 1080">
  <defs>
    <style>
      .cls-1 {
        fill: #b79637;
      }

      .cls-1, .cls-2, .cls-3, .cls-4 {
        stroke-width: 0px;
      }

      .cls-2 {
        fill: #1a1a1a;
      }

      .cls-5 {
        fill: #d4145a;
        stroke: #d4145a;
        stroke-miterlimit: 10;
        stroke-width: 20px;
      }

      .cls-3 {
        fill: #012257;
      }

      .cls-4 {
        fill: #fff;
      }
    </style>
  </defs>
  <path class="cls-1" d="m540,912.55c-115.86,0-224.79-45.12-306.72-127.05-81.93-81.93-127.05-190.85-127.05-306.72s45.12-224.79,127.05-306.72c81.92-81.92,190.86-127.05,306.72-127.05,0,0,0,0,0,0,115.86,0,224.79,45.12,306.72,127.05,81.93,81.93,127.05,190.85,127.05,306.72s-45.12,224.79-127.05,306.72c-81.93,81.93-190.85,127.05-306.72,127.05Zm0-860.27c-113.92,0-221.03,44.36-301.58,124.92-80.56,80.56-124.92,187.66-124.92,301.58,0,235.18,191.33,426.5,426.5,426.5,235.18,0,426.5-191.33,426.5-426.5S775.18,52.28,540,52.28Z"/>
  <g>
    <circle class="cls-3" cx="540" cy="478.79" r="407.75"/>
    <g>
      <path class="cls-1" d="m539.27,823.07c-56.64,0-112.72-14.1-163.92-41.84-81.03-43.91-140.1-116.74-166.35-205.08-26.25-88.34-16.52-181.62,27.39-262.64,43.91-81.03,116.74-140.1,205.08-166.35,88.34-26.24,181.62-16.52,262.64,27.39,81.03,43.91,140.1,116.74,166.35,205.08,26.25,88.34,16.52,181.62-27.39,262.64-43.91,81.03-116.74,140.1-205.08,166.35-32.52,9.66-65.72,14.45-98.73,14.45Zm-328.88-247.34c53.95,181.6,245.59,285.45,427.19,231.49,181.6-53.95,285.45-245.59,231.49-427.19-53.95-181.6-245.59-285.45-427.19-231.49-181.6,53.95-285.45,245.59-231.49,427.19Z"/>
      <path class="cls-1" d="m539.86,734.98c-110.84,0-213.39-72.33-246.53-183.87-19.55-65.82-12.31-135.31,20.41-195.68,32.71-60.37,86.98-104.38,152.8-123.94,135.87-40.36,279.25,37.33,319.62,173.2,19.55,65.82,12.31,135.31-20.41,195.68-32.71,60.37-86.98,104.38-152.8,123.94-24.33,7.23-48.91,10.67-73.09,10.67Zm-.24-509.81c-23.78,0-47.92,3.38-71.85,10.49-64.7,19.22-118.05,62.49-150.21,121.84-32.16,59.35-39.28,127.66-20.06,192.37,19.22,64.7,62.49,118.05,121.84,150.21,59.35,32.16,127.66,39.28,192.37,20.06,133.57-39.68,209.95-180.63,170.27-314.2-32.57-109.64-133.41-180.76-242.36-180.76Z"/>
      <g>
        <g>
          <g>
            <g>
              <rect class="cls-1" x="453.69" y="146" width="1.45" height="89.42" transform="translate(-35.5 137.31) rotate(-16.55)"/>
              <rect class="cls-1" x="624.86" y="722.16" width="1.45" height="89.42" transform="translate(-192.49 209.92) rotate(-16.55)"/>
            </g>
            <g>
              <rect class="cls-1" x="783.37" y="392.48" width="89.42" height="1.45" transform="translate(-77.72 252.33) rotate(-16.56)"/>
              <rect class="cls-1" x="207.22" y="563.65" width="89.42" height="1.45" transform="translate(-150.41 95.21) rotate(-16.56)"/>
            </g>
          </g>
          <g>
            <g>
              <rect class="cls-1" x="638.48" y="213.84" width="89.42" height="1.45" transform="translate(168.91 712.87) rotate(-61.53)"/>
              <rect class="cls-1" x="352.11" y="742.28" width="89.42" height="1.45" transform="translate(-445.5 737.69) rotate(-61.53)"/>
            </g>
            <g>
              <rect class="cls-1" x="803.5" y="577.26" width="1.45" height="89.42" transform="translate(-125.79 1032.71) rotate(-61.55)"/>
              <rect class="cls-1" x="275.06" y="290.9" width="1.45" height="89.42" transform="translate(-150.68 418.18) rotate(-61.55)"/>
            </g>
          </g>
        </g>
        <g>
          <g>
            <g>
              <rect class="cls-1" x="523.38" y="178.86" width="89.42" height="1.45" transform="translate(336.06 728.34) rotate(-84.62)"/>
              <rect class="cls-1" x="467.21" y="777.27" width="89.42" height="1.45" transform="translate(-310.62 1214.76) rotate(-84.62)"/>
            </g>
            <g>
              <rect class="cls-1" x="838.48" y="462.17" width="1.45" height="89.42" transform="translate(256.13 1295.04) rotate(-84.64)"/>
              <rect class="cls-1" x="240.07" y="406" width="1.45" height="89.42" transform="translate(-230.44 648.33) rotate(-84.64)"/>
            </g>
          </g>
          <g>
            <g>
              <rect class="cls-1" x="726.72" y="286.35" width="89.42" height="1.45" transform="translate(-5.9 557.77) rotate(-39.61)"/>
              <rect class="cls-1" x="263.87" y="669.78" width="89.42" height="1.45" transform="translate(-356.65 350.7) rotate(-39.61)"/>
            </g>
            <g>
              <rect class="cls-1" x="730.99" y="665.51" width="1.45" height="89.42" transform="translate(-284.84 630.07) rotate(-39.64)"/>
              <rect class="cls-1" x="347.56" y="202.65" width="1.45" height="89.42" transform="translate(-77.72 279.05) rotate(-39.64)"/>
            </g>
          </g>
        </g>
      </g>
      <g>
        <g>
          <g>
            <g>
              <rect class="cls-1" x="508.74" y="135.12" width="1.45" height="89.42" transform="translate(-15.64 52.7) rotate(-5.83)"/>
              <rect class="cls-1" x="569.82" y="733.05" width="1.45" height="89.42" transform="translate(-76.08 62.01) rotate(-5.83)"/>
            </g>
            <g>
              <rect class="cls-1" x="794.26" y="447.52" width="89.42" height="1.45" transform="translate(-41.18 87.5) rotate(-5.83)"/>
              <rect class="cls-1" x="196.33" y="508.6" width="89.42" height="1.45" transform="translate(-50.47 27.11) rotate(-5.83)"/>
            </g>
          </g>
          <g>
            <g>
              <rect class="cls-1" x="685.1" y="245.07" width="89.42" height="1.45" transform="translate(78.25 656.29) rotate(-50.82)"/>
              <rect class="cls-1" x="305.49" y="711.06" width="89.42" height="1.45" transform="translate(-422.81 533.63) rotate(-50.82)"/>
            </g>
            <g>
              <rect class="cls-1" x="772.27" y="623.89" width="1.45" height="89.42" transform="translate(-233.58 845.63) rotate(-50.83)"/>
              <rect class="cls-1" x="306.28" y="244.28" width="1.45" height="89.42" transform="translate(-110.95 344.49) rotate(-50.83)"/>
            </g>
          </g>
        </g>
        <g>
          <g>
            <g>
              <rect class="cls-1" x="578.51" y="189.29" width="89.42" height="1.45" transform="translate(267.83 736.11) rotate(-73.9)"/>
              <rect class="cls-1" x="412.08" y="766.83" width="89.42" height="1.45" transform="translate(-407.34 993.59) rotate(-73.9)"/>
            </g>
            <g>
              <rect class="cls-1" x="828.05" y="517.3" width="1.45" height="89.42" transform="translate(59.25 1202.75) rotate(-73.92)"/>
              <rect class="cls-1" x="250.51" y="350.86" width="1.45" height="89.42" transform="translate(-198.44 527.44) rotate(-73.92)"/>
            </g>
          </g>
          <g>
            <g>
              <rect class="cls-1" x="758.33" y="332.72" width="89.42" height="1.45" transform="translate(-61.11 429.9) rotate(-28.92)"/>
              <rect class="cls-1" x="232.26" y="623.41" width="89.42" height="1.45" transform="translate(-267.28 211.76) rotate(-28.92)"/>
            </g>
            <g>
              <rect class="cls-1" x="684.62" y="697.12" width="1.45" height="89.42" transform="translate(-273.29 424) rotate(-28.92)"/>
              <rect class="cls-1" x="393.93" y="171.05" width="1.45" height="89.42" transform="translate(-55.12 217.79) rotate(-28.92)"/>
            </g>
          </g>
        </g>
      </g>
    </g>
    <g>
      <g>
        <polygon class="cls-1" points="183.4 835.38 590.54 530.54 488.26 428.25 183.4 835.38"/>
        <path class="cls-2" d="m147.31,871.48l340.16-454.29,114.13,114.13-454.28,340.16Zm341.74-432.17l-269.54,359.98,359.98-269.54-90.43-90.44Z"/>
      </g>
      <g>
        <polygon class="cls-4" points="478.41 426.25 932.69 86.1 592.53 540.38 478.41 426.25"/>
        <path class="cls-2" d="m896.59,122.19l-304.85,407.13-102.28-102.29L896.59,122.19m72.19-72.19l-80.9,60.57-407.13,304.85-13.41,10.04,11.85,11.85,102.28,102.29,11.85,11.85,10.04-13.41,304.85-407.13,60.57-80.9h0Z"/>
      </g>
    </g>
  </g>
  <polyline class="cls-3" points="509.46 164.63 501.91 105.32 574.81 112.98 569.62 147.06"/>
  <g>
    <g>
      <path class="cls-4" d="m533.31,902c-11.38,0-40.23-3.39-55.27-6.98-8.01-1.81-16.12-4.03-24-6.57l-5.92-1.91,9.31-58.27,7.86,2.23c22.62,6.41,46.15,9.83,69.94,10.15l7.11.1.05,7.11c0,1.19,0,14.46,0,27.3,0,9.44,0,18.05,0,19.54l.02,6.94-6.94.33c-.64.03-1.37.05-2.17.05Z"/>
      <path class="cls-2" d="m463.32,837.47c22.82,6.47,46.87,10.09,71.82,10.43.02,2.05,0,43.36,0,46.81-.54.03-1.15.04-1.83.04-11.09,0-39.14-3.33-53.58-6.79-7.98-1.8-15.8-3.95-23.46-6.42l7.04-44.06m-11.76-18.42l-2.58,16.13-7.04,44.06-1.96,12.29,11.84,3.82c8.06,2.6,16.35,4.87,24.63,6.75,15.91,3.79,45.02,7.16,56.86,7.16.92,0,1.74-.02,2.51-.05l13.87-.65-.03-13.89c0-1.5,0-10.23,0-19.74,0-15.18,0-26.01,0-27.14l-.11-14.22-14.22-.19c-23.15-.31-46.05-3.64-68.06-9.88l-15.72-4.46h0Z"/>
    </g>
    <g>
      <path class="cls-4" d="m440.73,883.77c-22.04-8.39-42.75-19.54-61.54-33.14l-2.89-2.09-.11-3.57c-.43-14.36,1.11-29.21,4.58-44.16l2.38-10.28,8.75,5.91c18.69,12.62,39.12,22.74,60.72,30.09l5.8,1.97-9.34,58.45-8.34-3.17Z"/>
      <path class="cls-2" d="m387.83,802.45c19.1,12.9,39.95,23.3,62.44,30.95l-6.97,43.59c-21.66-8.24-41.77-19.14-59.87-32.24-.43-14.4,1.27-28.83,4.4-42.31m-9.37-23.85l-4.77,20.57c-3.61,15.56-5.21,31.04-4.77,46.02l.21,7.14,5.79,4.19c19.31,13.98,40.58,25.43,63.22,34.05l16.68,6.35,2.82-17.62,6.97-43.59,1.93-12.09-11.59-3.94c-20.99-7.14-40.84-16.98-59-29.24l-17.5-11.81h0Z"/>
    </g>
    <g>
      <path class="cls-4" d="m541.41,840.74l7.01-.24c20.91-.71,41.57-3.8,61.39-9.18l7.82-2.12,1.26,8c.41,2.59,2.15,14.71,3.84,26.44,1.26,8.73,2.42,16.8,2.77,19.16l.94,6.27-6.09,1.78c-22.78,6.65-46.83,10.38-71.48,11.07l-7.46.21v-61.38Z"/>
      <path class="cls-2" d="m611.72,838.33c.71,4.5,5.79,40.13,6.6,45.55-22.15,6.47-45.53,10.1-69.65,10.78v-46.9c21.8-.74,42.89-3.95,63.05-9.43m11.83-18.26l-15.64,4.25c-19.28,5.24-39.38,8.24-59.73,8.93l-14.03.47v75.87l14.93-.42c25.28-.71,49.94-4.53,73.32-11.36l12.17-3.56-1.89-12.54c-.35-2.32-1.53-10.52-2.78-19.21-1.68-11.7-3.43-23.81-3.84-26.43l-2.51-16.01h0Z"/>
    </g>
    <g>
      <path class="cls-4" d="m607.77,767.46l8.73-2.83c16.72-5.41,34.02-11.01,49.27-19.52l5.98-3.33,3.68,5.77c7.97,12.5,14.36,26.35,18.98,41.18l1.65,5.31-4.69,2.98c-19.43,12.35-40.69,22.23-63.17,29.37l-.32.1c-.99.31-1.98.63-2.97.93l-8.08,2.45-9.05-62.41Z"/>
      <path class="cls-2" d="m669.3,751.45c7.78,12.2,13.78,25.35,18.17,39.44-18.95,12.04-39.41,21.57-61.48,28.58-1.06.34-2.13.68-3.2,1l-6.96-48c18.12-5.88,36.7-11.67,53.47-21.02m4.88-19.35l-11.95,6.67c-14.63,8.16-31.57,13.64-47.96,18.95l-2.92.95-11.64,3.78,1.76,12.12,6.96,48,2.42,16.71,16.16-4.9c1.04-.32,2.07-.64,3.1-.97l.27-.08c23.09-7.33,44.92-17.48,64.88-30.17l9.38-5.96-3.31-10.61c-4.81-15.44-11.47-29.88-19.79-42.93l-7.36-11.54h0Z"/>
    </g>
    <g>
      <path class="cls-4" d="m541.42,831.89c.21-4.89.05-12.74-.13-21.06-.23-11.14-.47-22.65.15-29.33l.6-6.43,6.45-.15c18.24-.43,35.92-2.54,52.56-6.27l7.69-1.72,1.09,7.81c1.06,7.65,2.23,15.48,3.35,23.04,1.23,8.31,2.51,16.9,3.67,25.33l.87,6.34-6.18,1.66c-17.91,4.82-38.39,7.55-62.63,8.36l-7.83.26.34-7.83Z"/>
      <path class="cls-2" d="m602.64,775.73c2.24,16.09,4.81,32.28,7.01,48.36-19.71,5.3-40.45,7.43-60.98,8.11.51-11.75-1.04-38.93,0-50.03,18.43-.44,36.53-2.53,53.97-6.44m12.21-17.61l-15.38,3.44c-16.17,3.62-33.38,5.67-51.14,6.09l-12.91.31-1.2,12.86c-.66,7.09-.42,18.82-.18,30.16.16,7.84.33,15.94.13,20.59l-.68,15.66,15.67-.52c24.8-.83,45.82-3.64,64.27-8.6l12.35-3.32-1.74-12.67c-1.16-8.48-2.44-17.09-3.68-25.42-1.12-7.54-2.28-15.34-3.34-22.96l-2.17-15.61h0Z"/>
    </g>
    <g>
      <path class="cls-4" d="m531.91,839.47c-16.37,0-36.94-3.04-61.14-9.05-2.4-.64-4.67-1.25-6.92-1.91l-6.16-1.79,9.99-62.47,7.93,2.36c11.5,3.42,24.09,4.57,36.27,5.69,7.28.67,14.81,1.35,22.14,2.52l1.31.04,6.93.18.14,6.93c.09,4.28.06,8.63.04,12.84-.02,3.99-.04,8.12.03,12.1l.14,7.39h-.21v24.92l-7.06.19c-1.13.03-2.27.05-3.43.05h0Z"/>
      <path class="cls-2" d="m473.54,773.58c19.36,5.76,40.26,5.33,59.77,8.49.61.02,1.22.05,1.84.06.17,8.23-.08,16.65.07,24.92-.02,0-.05,0-.07,0v25.11c-1.07.03-2.14.04-3.23.04-18.91,0-40.85-4.23-59.4-8.83-2.23-.59-4.45-1.19-6.65-1.83l7.67-47.97m-11.72-18.64l-2.61,16.35-7.67,47.97-2.03,12.67,12.32,3.57c2.43.71,4.88,1.36,6.96,1.92l.12.03.12.03c24.77,6.14,45.93,9.26,62.89,9.26,1.22,0,2.44-.02,3.62-.05l14.13-.38v-24.74h.33s-.26-14.77-.26-14.77c-.07-3.89-.05-7.8-.03-11.92.02-4.25.05-8.65-.04-13.02l-.28-13.85-13.85-.37c-.27,0-.54-.02-.81-.03-7.42-1.16-14.92-1.85-22.18-2.51-12.37-1.13-24.05-2.2-34.86-5.42l-15.87-4.72h0Z"/>
    </g>
    <g>
      <path class="cls-4" d="m616.75,829.38l5.87-1.87c1.35-.43,2.66-.89,3.97-1.34.94-.33,1.88-.65,2.84-.98,20.02-7.14,39.27-16.88,57.08-28.91l8.68-5.87,2.44,10.19c2.4,10.03,3.56,20.47,4.68,30.57.51,4.64,1.05,9.43,1.69,14.03l.56,4.01-3.12,2.58c-20.11,16.64-45.47,26.91-67.62,34.77l-8.34,2.96-8.72-60.15Z"/>
      <path class="cls-2" d="m690.57,802.3c3.39,14.16,4.21,29.33,6.23,43.91-18.65,15.43-42.6,25.43-65.42,33.52l-6.57-45.3c2.36-.75,4.57-1.57,6.92-2.36,21.18-7.55,40.77-17.58,58.83-29.78m9.24-23.76l-17.37,11.73c-17.27,11.67-35.93,21.12-55.46,28.09-.94.32-1.86.64-2.77.95-1.32.46-2.56.89-3.8,1.28l-11.74,3.73,1.77,12.19,6.57,45.3,2.54,17.52,16.68-5.92c22.75-8.07,48.84-18.66,69.82-36.02l6.24-5.16-1.12-8.02c-.63-4.5-1.13-9.03-1.66-13.83-1.14-10.32-2.33-20.99-4.83-31.46l-4.88-20.38h0Z"/>
    </g>
    <g>
      <path class="cls-4" d="m450.48,824.3c-19.74-6.77-38.89-15.95-56.93-27.29l-.27-.18c-.85-.59-1.73-1.16-2.6-1.72-.89-.58-1.79-1.16-2.67-1.77l-4.52-3.1,1.74-5.19c4.74-14.19,11.34-27.76,19.61-40.32l3.69-5.61,5.88,3.25c15.46,8.54,31.22,15.26,48.19,20.55l6,1.87-9.96,62.3-8.16-2.8Z"/>
      <path class="cls-2" d="m410.9,748.72c15.74,8.69,32.09,15.69,49.53,21.13-.98,6.14-6.5,40.68-7.61,47.58-19.8-6.79-38.22-15.75-55.42-26.57-1.74-1.21-3.55-2.31-5.3-3.51,4.57-13.66,10.9-26.65,18.79-38.63m-4.74-19.2l-7.39,11.22c-8.62,13.09-15.49,27.22-20.43,42.01l-3.47,10.39,9.03,6.19c.93.64,1.87,1.25,2.82,1.86.86.56,1.68,1.09,2.41,1.6l.27.19.28.17c18.51,11.64,38.17,21.06,58.44,28.01l16.32,5.6,2.72-17.04,5.29-33.09,2.32-14.49,1.98-12.41-12-3.74c-16.49-5.14-31.81-11.68-46.84-19.98l-11.76-6.49h0Z"/>
    </g>
    <g>
      <path class="cls-4" d="m540.87,1027.71c-25.03,0-50.53-4.57-73.75-13.21-29.5-10.32-53.7-30.94-69.83-59.57-14.42-25.59-22.17-56.73-22.42-90.07l-.1-13.23,11.21,7.02c46.92,29.39,101.11,44.93,156.7,44.93s105.53-14.35,151.09-41.5l10.17-6.06.79,11.81c2.88,43.15-9.67,80.99-36.27,109.42-30,32.06-76.5,50.45-127.58,50.45Z"/>
      <path class="cls-2" d="m382.12,864.81c46.55,29.16,101.58,46.04,160.56,46.04s109.5-15.53,154.81-42.52c6.65,99.77-72.29,152.13-156.61,152.13-23.91,0-48.27-4.22-71.22-12.76-59.86-20.94-87.07-81.64-87.53-142.89m-14.72-26.35l.2,26.46c.26,34.57,8.34,66.93,23.36,93.58,16.99,30.15,42.49,51.88,73.76,62.86,23.99,8.91,50.32,13.62,76.15,13.62,53.09,0,101.52-19.23,132.89-52.75,28.01-29.94,41.22-69.66,38.21-114.87l-1.57-23.63-20.34,12.12c-44.44,26.48-95.4,40.48-147.38,40.48s-107.09-15.15-152.85-43.82l-22.42-14.05h0Z"/>
    </g>
  </g>
  <circle class="cls-4" cx="540" cy="478.79" r="308.72"/>
  <g>
    <rect class="cls-5" x="243.55" y="453.13" width="592.89" height="51.31" transform="translate(496.72 -241.6) rotate(45)"/>
    <rect class="cls-5" x="243.56" y="453.14" width="592.89" height="51.31" transform="translate(-180.4 522.06) rotate(-45)"/>
  </g>
  <path class="cls-2" d="m540,794.77c-84.4,0-163.75-32.87-223.43-92.55s-92.55-139.03-92.55-223.43,32.87-163.75,92.55-223.43c59.68-59.68,139.03-92.55,223.43-92.55s163.75,32.87,223.43,92.55c59.68,59.68,92.55,139.03,92.55,223.43s-32.87,163.75-92.55,223.43c-59.68,59.68-139.03,92.55-223.43,92.55Zm0-617.45c-166.23,0-301.46,135.24-301.46,301.46s135.24,301.46,301.46,301.46,301.46-135.24,301.46-301.46-135.24-301.46-301.46-301.46Z"/>
  <g>
    <path class="cls-2" d="m662.01,486.76c-112.04,1.02-108.22,171.24,3.87,167.21,104.73.5,109.23-169.4-3.87-167.21Z"/>
    <path class="cls-2" d="m410.59,485c-110.48,6.19-94.66,170.14,7.49,170.75,115.22-9.93,105.19-169.55-7.49-170.75Z"/>
    <path class="cls-2" d="m509.7,667.42c-11.71,24.2,25.61,42.89,47.7,29.74,48.29-31.35-29.42-68.54-47.7-29.74Z"/>
  </g>
  <path class="cls-1" d="m560.39,112.05c-.83.17-1.5.32-2.02.47-.52.15-.9.32-1.15.53-.58.5-.87,1.45-.87,2.86l-.5,34.75c0,1.12-.52,1.68-1.55,1.68-.29,0-.53-.05-.72-.16s-.4-.26-.65-.47l-24.43-32.39c-.04,4.14-.09,8.26-.16,12.34-.06,4.08-.11,8.15-.16,12.21-.04.12-.06.23-.06.31,0,1.08.25,1.87.75,2.36.33.21.81.4,1.43.59.62.19,1.41.36,2.36.53.83.17,1.24.79,1.24,1.86,0,.58-.11,1.04-.34,1.37-.23.33-.61.5-1.15.5-.83,0-1.99-.06-3.48-.19-.7-.08-1.33-.12-1.86-.12h-2.67c-.5,0-1.1.04-1.8.12-1.33.12-2.4.19-3.23.19-.46,0-.81-.17-1.06-.5s-.37-.79-.37-1.37c0-.5.1-.91.31-1.24.21-.33.54-.54.99-.62.95-.17,1.74-.33,2.36-.5.62-.17,1.08-.37,1.37-.62.29-.21.48-.55.56-1.03.08-.48.14-1.09.19-1.83l.93-27.85v-.19c0-1.2-.27-2.05-.81-2.55h.06c-.25-.21-.74-.4-1.46-.59-.73-.19-1.52-.38-2.39-.59-.79-.04-1.18-.66-1.18-1.87s.48-1.87,1.43-1.87h1.06c.41,0,.87.04,1.37.12.91.12,1.55.19,1.93.19.17,0,.41,0,.75-.03.33-.02.66-.07.99-.16.37-.08.75-.12,1.12-.12h1.12c.12,0,.28.04.47.12.19.08.32.17.4.25l22.63,29.78v-22.32c0-.7-.07-1.28-.22-1.74-.15-.46-.34-.83-.59-1.12v.06c-.29-.21-.76-.42-1.4-.65-.64-.23-1.38-.42-2.21-.59-.95-.08-1.43-.68-1.43-1.8,0-1.33.48-1.99,1.43-1.99s2.11.06,3.61.19c.7.08,1.28.12,1.74.12h2.55c.54,0,1.16-.04,1.87-.12,1.24-.12,2.3-.19,3.17-.19.95,0,1.43.64,1.43,1.93,0,1.12-.56,1.76-1.68,1.93Z"/>
</svg>